<?xml version="1.0" encoding="UTF-8" standalone="no"?>
<!-- Created with Inkscape (http://www.inkscape.org/) -->

<svg
   width="109.33517mm"
   height="98.816162mm"
   viewBox="0 0 109.33517 98.816162"
   version="1.1"
   id="svg1"
   xml:space="preserve"
   xmlns:inkscape="http://www.inkscape.org/namespaces/inkscape"
   xmlns:sodipodi="http://sodipodi.sourceforge.net/DTD/sodipodi-0.dtd"
   xmlns="http://www.w3.org/2000/svg"
   xmlns:svg="http://www.w3.org/2000/svg"><sodipodi:namedview
     id="namedview1"
     pagecolor="#505050"
     bordercolor="#eeeeee"
     borderopacity="1"
     inkscape:showpageshadow="0"
     inkscape:pageopacity="0"
     inkscape:pagecheckerboard="0"
     inkscape:deskcolor="#505050"
     inkscape:document-units="mm" /><defs
     id="defs1" /><g
     inkscape:label="Capa 1"
     inkscape:groupmode="layer"
     id="layer1"
     transform="translate(-53.64791,-97.995983)"><g
       id="Desktop"
       transform="matrix(0.26458333,0,0,0.26458333,2.6103092,68.212357)"
       style="fill:#ffffff">
	<g
   id="_x31_366-home-01"
   transform="translate(-24,-24)"
   style="fill:#ffffff">
		<path
   id="logo_x2F_foofighters"
   class="st0"
   d="m 467.9,410.7 c -4.9,0 -10.2,0 -15.4,0 -5.9,0 -11.4,-1.5 -16.6,-4.2 -8.4,-4.4 -11.9,-12 -13.3,-21.6 1.8,-0.2 3.5,-0.4 5.1,-0.4 14.2,-0.1 28.5,0 42.7,-0.1 4.8,0 4.7,0 6.1,-4.6 9.9,-32.3 28.9,-58.3 55.4,-79 10.5,-8.2 21.7,-15.2 33.6,-21.1 1,-0.5 1.9,-1 2.8,-1.5 -0.1,-0.3 -0.1,-0.7 -0.2,-1 -14.7,-0.2 -29.3,-0.4 -44,-0.5 -14.6,0 -29,1.6 -43.1,5.7 -18.2,5.3 -32.6,15.7 -42.9,31.7 -7.2,11.1 -11.7,23.3 -15.4,35.9 -1.3,4.2 -2.9,8.5 -5.1,12.3 -4,7 -10.1,7.5 -15.6,1.7 -5.7,-6 -8.5,-13.5 -10.4,-21.3 -3.2,-13.1 -2.9,-26.2 1.5,-39.1 0.3,-0.9 0.5,-1.8 0.7,-2.8 0.1,-0.3 -0.1,-0.6 -0.3,-1.6 -6.2,-0.2 -12.5,-0.4 -18.8,-0.6 -2.1,-0.1 -2.4,1.5 -3,3 -3.5,8.2 -6.5,16.7 -10.9,24.4 -13.4,23.3 -30.7,43.2 -53.5,57.7 -13.6,8.7 -28.3,14.1 -44.7,13.6 -11.1,-0.4 -21.3,-3.9 -30.4,-10.4 -3.8,-2.7 -7.3,-5.7 -10.7,-8.8 -2.8,-2.5 -4.5,-5.8 -4.6,-9.7 -0.1,-4.8 3.6,-8.2 8.4,-7.5 1.9,0.3 3.9,0.7 5.4,1.8 8.9,6 18.2,4.9 27.6,1.8 13.2,-4.2 23.6,-12.4 32.1,-23.1 9.1,-11.4 14.8,-24.5 19.2,-38.2 0.4,-1.3 0.6,-2.7 1.1,-4.6 -3.4,0 -6.6,0.1 -9.8,0 -6.6,-0.2 -13,-1 -19.3,-3 -10,-3.2 -14.4,-11 -16.6,-20.5 -0.4,-1.9 0.2,-3.1 2.4,-3.2 1.3,0 2.6,0 3.8,0 13.9,0 27.8,0 41.7,-0.1 4.4,0 4.5,0 5.6,-4.1 7.7,-27.1 22.6,-49.7 43,-69 14.3,-13.6 30.6,-24 48.1,-32.9 0.4,-0.2 0.8,-0.5 2.2,-1.4 -18.1,-0.2 -35.2,-1 -52.2,-0.5 -13.7,0.5 -27.4,2.1 -40.4,6.8 -19.4,7 -33.6,19.7 -43.2,37.9 -5.1,9.7 -8.5,19.9 -11.7,30.3 -1.2,3.9 -2.8,7.8 -4.9,11.4 -3.6,6.1 -8.9,7.1 -13.8,1.9 -3.5,-3.7 -6.9,-8.2 -8.7,-13 -8.1,-21.2 -6.8,-42.3 4.2,-62.2 11.4,-20.6 28.7,-34.2 52.3,-38.2 9.4,-1.6 19.1,-1.2 28.7,-1.2 12.8,0 25.6,0.4 38.4,0.6 10.2,0.1 20.4,0.2 30.6,0 18.2,-0.2 36.4,-0.5 54.7,-0.9 4,-0.1 8,-0.9 11.9,-0.7 3.1,0.2 6.4,0.9 9.1,2.4 7.4,4.1 7.5,13.3 0.4,18 -1.7,1.1 -3.6,2.1 -5.6,2.7 -15.5,4.7 -27.9,13.9 -38.6,25.6 -12.5,13.7 -21.6,29.5 -29.3,46.3 -5.5,12.1 -9.9,24.5 -13.8,37.2 -0.2,0.6 -0.3,1.2 -0.5,2.3 1.3,0.2 2.5,0.6 3.7,0.6 8.6,0 17.3,-0.1 25.9,0 2.4,0 4.2,-0.9 5.9,-2.5 12,-10.7 26.2,-16.9 42.2,-18.7 2.7,-0.3 5.4,-0.2 8.2,-0.2 41.9,0 83.8,0 125.7,-0.1 8.1,0 16.3,-0.8 24.4,-0.7 3.2,0 6.7,1 9.5,2.6 6.1,3.3 7,11 2,15.8 -1.9,1.8 -4.3,3.5 -6.8,4.2 -20.4,6.4 -35.5,19.8 -47.9,36.6 -16,21.7 -26.5,46.1 -33.9,71.8 -0.3,1 -0.4,2.1 -0.6,3.8 2,0.1 3.7,0.2 5.4,0.2 16.2,0 32.3,0 48.5,0 1.3,0 2.6,-0.1 3.8,0 2.9,0.2 3.2,0.7 2.5,3.7 -3,12.9 -11.4,20.2 -25.4,22.6 -10.2,1.7 -20.4,0.9 -30.6,0.9 -2.6,0 -5.1,0.1 -7.7,-0.2 -2.8,-0.3 -4,0.8 -4.8,3.3 -3.5,10.8 -8.6,20.9 -14.7,30.5 -11.5,18.3 -25.6,34.2 -43.2,46.9 -10.8,7.8 -22.6,13.8 -35.9,16.5 -22.6,4.5 -41.5,-2.4 -57.2,-18.9 -1.4,-1.5 -2.4,-3.4 -3.3,-5.3 -1.4,-3 -1.2,-6 1.1,-8.5 2.1,-2.2 4.9,-2.9 7.9,-2.1 1.7,0.5 3.5,0.9 4.9,1.8 6.9,4.8 14.6,4.2 22.2,2.8 12.9,-2.4 23.2,-9.7 32.1,-18.9 12.4,-13 19.9,-28.7 24.5,-45.9 0.2,-0.6 0.2,-1.2 0.2,-1.9 0.3,-0.1 0.2,-0.3 -0.1,-1.1"
   style="fill:#ffffff" />
	</g>
</g></g><style
     type="text/css"
     id="style1">
	.st0{fill-rule:evenodd;clip-rule:evenodd;fill:#171817;}
</style></svg>
